<svg width="31" height="23" viewBox="0 0 31 23" fill="none" xmlns="http://www.w3.org/2000/svg">
<path d="M14.3699 21.3408C14.1509 21.3408 13.941 21.2536 13.7862 21.0983C13.6314 20.9431 13.5444 20.7325 13.5444 20.5129H11.8936C11.8936 21.1716 12.1545 21.8033 12.6189 22.2691C13.0832 22.7348 13.7131 22.9965 14.3699 22.9965C15.0266 22.9965 15.6565 22.7348 16.1209 22.2691C16.5853 21.8033 16.8462 21.1716 16.8462 20.5129H15.1953C15.1953 20.7325 15.1083 20.9431 14.9535 21.0983C14.7987 21.2536 14.5888 21.3408 14.3699 21.3408Z" fill="#111111"/>
<path d="M8.5612 21.3408C8.34228 21.3408 8.13233 21.2536 7.97753 21.0983C7.82273 20.9431 7.73576 20.7325 7.73576 20.5129H6.07715C6.07715 20.8396 6.14129 21.163 6.26592 21.4647C6.39055 21.7665 6.57322 22.0407 6.8035 22.2716C7.03378 22.5026 7.30717 22.6858 7.60805 22.8108C7.90893 22.9358 8.23141 23.0001 8.55707 23.0001C8.88274 23.0001 9.20522 22.9358 9.5061 22.8108C9.80698 22.6858 10.0804 22.5026 10.3106 22.2716C10.5409 22.0407 10.7236 21.7665 10.8482 21.4647C10.9729 21.163 11.037 20.8396 11.037 20.5129H9.38612C9.38612 20.7324 9.29923 20.9429 9.14454 21.0981C8.98985 21.2534 8.78003 21.3406 8.5612 21.3408Z" fill="#111111"/>
<path d="M19.3299 7.64401C19.2849 7.63633 19.2393 7.63252 19.1937 7.63263H5.9867C5.76778 7.63263 5.55782 7.71985 5.40302 7.8751C5.24823 8.03035 5.16126 8.24092 5.16126 8.46047C5.16126 8.68003 5.24823 8.8906 5.40302 9.04585C5.55782 9.2011 5.76778 9.28832 5.9867 9.28832H18.2192L18.001 10.6015L16.8438 17.5668H6.07595L3.26946 10.6015L1.59537 6.48296C1.50684 6.28921 1.34721 6.13717 1.14972 6.05849C0.952225 5.9798 0.732083 5.98054 0.535118 6.06054C0.338153 6.14054 0.179541 6.29365 0.0922992 6.48798C0.00505767 6.68232 -0.00409102 6.90291 0.0667575 7.10384L2.73963 13.6816L4.56385 18.5307C4.6985 18.9389 4.97657 19.2224 5.37794 19.2224H17.5428C17.7383 19.2225 17.9275 19.1531 18.0766 19.0264C18.2258 18.8997 18.3253 18.724 18.3574 18.5307L19.675 10.6015L20.0083 8.59655C20.0443 8.38002 19.993 8.15803 19.8658 7.9794C19.7386 7.80077 19.5458 7.68013 19.3299 7.64401Z" fill="#111111"/>
<circle cx="22" cy="9" r="9" fill="#9C6D3A"/>
<path d="M21.9866 13.1C20.6666 13.1 19.6566 12.24 19.6066 11.04H20.6166C20.6866 11.76 21.2366 12.19 21.9866 12.19C22.9166 12.19 23.3766 11.61 23.3766 10.84C23.3766 10.14 22.8766 9.53 21.9766 9.53C21.3766 9.53 20.9266 9.78 20.6466 10.27L19.8266 10.01L20.4266 6.24H24.0366V7.14H21.1566L20.8566 9.09C21.2366 8.79 21.6666 8.65 22.1266 8.65C23.6166 8.65 24.4266 9.69 24.4266 10.84C24.4266 12.05 23.5566 13.1 21.9866 13.1Z" fill="white"/>
</svg>
