<svg width="270" height="30" viewBox="0 0 270 30" fill="none" xmlns="http://www.w3.org/2000/svg">
<circle cx="15" cy="15" r="14.5" stroke="#555555"/>
<path d="M20.6699 10.1753C20.1855 10.4746 19.656 10.6861 19.1039 10.801C18.6347 10.2878 17.9839 9.99819 17.3039 10.0001C15.9645 9.98959 14.8669 11.1062 14.8439 12.5028C14.8445 12.6967 14.8666 12.8899 14.9099 13.0785C12.9372 12.9814 11.0949 12.023 9.83392 10.4381C9.61823 10.8171 9.50232 11.2488 9.49794 11.6895C9.49799 12.5392 9.91147 13.3309 10.596 13.7918C10.2051 13.7786 9.82268 13.6692 9.47994 13.4727C9.47994 13.4727 9.47994 13.4727 9.47994 13.504C9.47602 14.7244 10.3048 15.7753 11.454 16.0068C11.0917 16.1075 10.7124 16.1224 10.344 16.0506C10.6753 17.0844 11.5968 17.787 12.642 17.8026C11.7719 18.5081 10.7021 18.8932 9.59998 18.8975C9.39945 18.8973 9.19908 18.8848 9 18.86C10.1291 19.6048 11.4379 19.9998 12.774 19.9988C16.5841 20.0714 19.7292 16.9092 19.7989 12.9359C19.7996 12.8938 19.8 12.8517 19.8 12.8095C19.8 12.701 19.8 12.5926 19.8 12.4841C20.2702 12.1247 20.6764 11.6821 21 11.1764C20.5496 11.3821 20.0724 11.517 19.584 11.5769C20.0976 11.2633 20.4838 10.7649 20.6699 10.1753Z" fill="#555555"/>
<circle cx="55" cy="15" r="14.5" stroke="#555555"/>
<path d="M53.3334 11.6667V13H52V15H53.3334V21H56V15H57.7734L58 13H56V11.8334C56 11.2934 56.0533 11.0067 56.8866 11.0067H58V9H56.2134C54.08 9.00006 53.3334 10 53.3334 11.6667Z" fill="#555555"/>
<circle cx="95" cy="15" r="14.5" stroke="#555555"/>
<path d="M98.6 9H91.4C90.0745 9 89 10.0745 89 11.4V18.6C89 19.9255 90.0745 21 91.4 21H98.6C99.9255 21 101 19.9255 101 18.6V11.4C101 10.0745 99.9255 9 98.6 9ZM97.4 10.8H99.2V12.6H97.4V10.8ZM95 12.6001C96.3255 12.6001 97.4 13.6746 97.4 15.0001C97.4 16.3255 96.3255 17.4 95 17.4C93.6745 17.4 92.6 16.3255 92.6 15.0001C92.6 13.6746 93.6745 12.6001 95 12.6001ZM99.8 18.6001C99.8 19.2628 99.2627 19.8001 98.6 19.8001H91.4C90.7373 19.8001 90.2 19.2628 90.2 18.6001V14.4H91.46C91.0996 16.3553 92.3926 18.2325 94.3479 18.5929C96.3032 18.9533 98.1804 17.6603 98.5408 15.705C98.5836 15.4725 98.6035 15.2364 98.6 15.0001C98.597 14.7987 98.577 14.598 98.54 14.4001H99.8V18.6001H99.8Z" fill="#555555"/>
<circle cx="135" cy="15" r="14.5" stroke="#555555"/>
<path d="M134.298 13.0897H134.513C134.988 13.0897 135.374 12.7061 135.377 12.231V10.8331C135.369 10.3641 134.987 9.98765 134.518 9.98486H134.304C133.829 9.98486 133.443 10.3684 133.44 10.8435V12.2415C133.448 12.7104 133.829 13.0869 134.298 13.0897ZM134.084 10.7807C134.084 10.6015 134.229 10.4562 134.409 10.4563C134.588 10.4564 134.733 10.6016 134.733 10.7807V12.2834C134.733 12.4626 134.587 12.6079 134.408 12.6078C134.229 12.6076 134.084 12.4625 134.084 12.2834V10.7807Z" fill="#555555"/>
<path d="M131.749 13.0367H132.508V11.3665L133.372 9H132.665L132.141 10.5707L131.618 9H130.838L131.759 11.3665L131.749 13.0367Z" fill="#555555"/>
<path d="M136.461 13.0897C136.766 13.0603 137.053 12.9272 137.272 12.7127V13.0373H137.901V9.98491H137.272V12.3514C137.272 12.3514 137.058 12.6027 136.854 12.6027C136.649 12.6027 136.639 12.4404 136.639 12.4404V9.98486H135.974V12.6708C136.01 12.9117 136.217 13.0898 136.461 13.0897Z" fill="#555555"/>
<path d="M136.032 16.5967C135.905 16.6028 135.788 16.6617 135.707 16.759V18.9266C135.79 19.0182 135.908 19.0697 136.032 19.068C136.356 19.068 136.356 18.7067 136.356 18.7067V16.958C136.356 16.9579 136.299 16.5967 136.032 16.5967Z" fill="#555555"/>
<path d="M138.518 16.5967C138.194 16.5967 138.194 16.9579 138.194 16.9579V17.4239H138.843V16.9579C138.843 16.9579 138.843 16.5967 138.518 16.5967Z" fill="#555555"/>
<path d="M138.76 13.7582C138.751 13.7584 138.742 13.7586 138.733 13.7589H138.723C138.723 13.7589 136.749 13.6489 134.759 13.6489C132.77 13.6489 130.785 13.7536 130.785 13.7536C129.918 13.7247 129.192 14.4041 129.163 15.2711C129.163 15.2888 129.162 15.3066 129.162 15.3243C129.062 15.983 129.008 16.6478 129 17.3139C129.007 17.987 129.062 18.6588 129.162 19.3244C129.162 20.1919 129.865 20.8955 130.732 20.896C130.75 20.896 130.768 20.8957 130.785 20.8951C130.785 20.8951 132.738 20.9998 134.759 20.9998C136.78 20.9998 138.733 20.8951 138.733 20.8951C139.6 20.9241 140.326 20.2447 140.355 19.3777C140.356 19.3599 140.356 19.3422 140.356 19.3244C140.456 18.6588 140.511 17.987 140.519 17.3139C140.512 16.6407 140.458 15.9689 140.356 15.3034C140.342 14.4361 139.628 13.7442 138.76 13.7582ZM132.408 15.5128H131.618V19.5862H130.838V15.5128H130.047V14.8426H132.424L132.408 15.5128ZM134.466 19.5862H133.812V19.2773C133.589 19.4847 133.303 19.6119 133 19.6386C132.757 19.6437 132.548 19.4661 132.513 19.2249V16.0259H133.189V19.0155C133.189 19.0155 133.189 19.1726 133.403 19.1726C133.618 19.1726 133.838 18.9161 133.838 18.9161V16.0259H134.487L134.466 19.5862ZM136.409 19.6386C136.133 19.6411 135.873 19.5129 135.707 19.293V19.5862H135V14.8427H135.702V16.382C135.881 16.1786 136.133 16.0528 136.403 16.0312C136.838 16.0312 137 16.3925 137 16.8584L137.005 18.8114C137.005 18.8114 137.005 19.6386 136.409 19.6386ZM139.545 17.9527H138.194V18.7276C138.194 18.7276 138.194 19.0888 138.518 19.0888C138.843 19.0888 138.843 18.7276 138.843 18.7276V18.3611H139.545V18.9265C139.451 19.3798 139.032 19.6906 138.571 19.649C138.093 19.692 137.653 19.3882 137.524 18.9265V16.9055C137.538 16.4026 137.958 16.0067 138.461 16.0213C138.498 16.0223 138.534 16.0256 138.571 16.0312C139.037 15.9644 139.47 16.2885 139.537 16.755C139.544 16.8048 139.546 16.8552 139.545 16.9055V17.9527H139.545Z" fill="#555555"/>
<circle cx="175" cy="15" r="14.5" stroke="#555555"/>
<path d="M173.989 20.9999C172.931 20.9999 171.916 20.5965 171.168 19.8784C170.42 19.1603 170 18.1863 170 17.1708C170 16.1552 170.42 15.1813 171.168 14.4632C171.916 13.7451 172.931 13.3417 173.989 13.3417H174.963V15.2104H173.989C173.584 15.2104 173.189 15.3256 172.852 15.5414C172.516 15.7571 172.254 16.0638 172.099 16.4226C171.944 16.7814 171.904 17.1762 171.982 17.5571C172.061 17.9381 172.256 18.2879 172.542 18.5626C172.828 18.8372 173.193 19.0242 173.59 19.1C173.986 19.1757 174.398 19.1368 174.771 18.9882C175.145 18.8396 175.465 18.5879 175.689 18.265C175.914 17.9421 176.034 17.5624 176.034 17.1741V8.99988H177.981V9.9337C177.981 10.4545 178.196 10.9539 178.58 11.3222C178.963 11.6904 179.484 11.8973 180.026 11.8973H181V13.7628H180.019C179.298 13.7638 178.591 13.5751 177.974 13.2173V17.1708C177.973 18.1855 177.553 19.1584 176.806 19.8763C176.059 20.5941 175.046 20.9981 173.989 20.9999Z" fill="#555555"/>
<circle cx="215" cy="15" r="14.5" stroke="#555555"/>
<path d="M214.852 9.00102L214.05 9.09674C213.546 9.18721 213.058 9.34214 212.597 9.55732C211.546 10.0853 210.721 10.946 210.261 11.9918C210.199 12.1879 210.151 12.3877 210.117 12.5899C209.766 13.7809 210.219 15.0554 211.257 15.796C211.414 15.8857 211.777 16.0533 211.883 15.8319C211.932 15.6962 211.966 15.5558 211.984 15.4132C212.044 15.2934 212.078 15.1632 212.084 15.0304C212.046 14.833 211.827 14.7134 211.733 14.5519C211.579 14.2263 211.481 13.8787 211.445 13.523V13.3495C211.491 11.881 212.57 10.6275 214.069 10.299C214.538 10.1779 215.027 10.1434 215.509 10.1973L216.204 10.3109C216.999 10.5091 217.656 11.0418 217.989 11.7585C218.208 12.3726 218.251 13.0312 218.114 13.6666C218.046 13.9417 218.058 14.181 217.97 14.4322C217.651 15.3594 217.181 16.2267 216.123 16.454C215.547 16.5977 214.95 16.3109 214.727 15.7841C214.647 15.6239 214.619 15.4451 214.645 15.2697C214.827 14.516 215.096 13.846 215.271 13.0924C215.487 12.5347 215.189 11.9154 214.605 11.709C214.575 11.6983 214.545 11.6889 214.514 11.6808C213.787 11.5133 213.23 12.1593 213.036 12.578C212.854 13.0214 212.811 13.5053 212.91 13.9717C213.016 14.1741 213.092 14.3895 213.136 14.6117C212.998 15.2099 212.835 15.8081 212.666 16.4062C212.497 17.0043 212.391 17.6025 212.215 18.2007C212.134 18.4638 212.14 18.745 212.071 19.0201V19.4209C212.028 19.7379 212.043 20.0598 212.115 20.3719C212.153 20.5335 212.115 20.7309 212.178 20.8505C212.175 20.9035 212.19 20.956 212.222 21C212.478 21 212.848 20.348 212.961 20.1626C213.205 19.792 213.414 19.4017 213.587 18.9962C213.756 18.6193 213.781 18.2007 213.912 17.7999C214.045 17.4697 214.14 17.1267 214.194 16.777C214.276 16.9468 214.412 17.0873 214.583 17.1778C215.184 17.5839 215.936 17.7293 216.655 17.5785C217.53 17.4163 218.316 16.9626 218.872 16.2985C219.251 15.8066 219.543 15.2591 219.737 14.6774C219.843 14.3784 219.862 14.0434 219.943 13.7264C220.078 12.9505 219.971 12.1539 219.636 11.4355C218.916 9.87432 217.35 8.96514 214.852 9.00102Z" fill="#555555"/>
<circle cx="255" cy="15" r="14.5" stroke="#555555"/>
<path d="M260.251 16.9764C259.896 16.8756 259.567 16.6988 259.288 16.4584C259.008 16.2179 258.785 15.9196 258.633 15.5843L258.767 15.5271C259.619 15.2125 259.82 14.7262 259.868 14.4592C259.901 14.2795 259.882 14.0942 259.812 13.9251C259.743 13.7561 259.626 13.6105 259.476 13.5058C259.342 13.4004 259.188 13.324 259.023 13.2813C258.858 13.2386 258.686 13.2306 258.518 13.2578C258.619 12.6806 258.586 12.0878 258.42 11.5256C258.254 10.9634 257.96 10.4468 257.561 10.0161C257.014 9.50396 256.327 9.16666 255.586 9.04769C254.845 8.92872 254.086 9.03355 253.405 9.34863C251.49 10.3021 251.385 12.0469 251.49 13.2769C251.222 13.2239 250.944 13.2678 250.705 13.4009C250.564 13.4759 250.441 13.5817 250.347 13.7105C250.252 13.8393 250.188 13.9877 250.159 14.1446C249.997 15.098 250.82 15.365 251.213 15.5176L251.385 15.5748C251.245 15.8989 251.033 16.1877 250.767 16.4203C250.5 16.6529 250.185 16.8233 249.844 16.9192C249.678 16.9543 249.523 17.0255 249.389 17.1278C249.255 17.23 249.145 17.3607 249.068 17.5103C248.977 17.7368 248.977 17.9893 249.068 18.2159C249.221 18.483 249.437 18.7092 249.697 18.8753C249.957 19.0413 250.254 19.1422 250.562 19.1693C250.686 19.7033 250.925 20.1228 251.825 19.9321C252.072 19.8874 252.325 19.8874 252.572 19.9321C252.725 20.0052 252.87 20.0947 253.003 20.1991C253.577 20.6676 254.283 20.9474 255.023 21C255.736 20.988 256.418 20.7127 256.938 20.2277C257.096 20.0689 257.297 19.9591 257.516 19.9117C257.735 19.8643 257.964 19.8813 258.174 19.9607C258.439 20.0215 258.717 19.9768 258.95 19.8361C259.182 19.6954 259.35 19.4698 259.418 19.2075C260.845 18.8928 260.998 18.1968 260.998 17.9012C261.013 17.6819 260.944 17.4652 260.806 17.2939C260.667 17.1227 260.469 17.0093 260.251 16.9764ZM252.477 15.9657C252.547 15.8353 252.59 15.6916 252.602 15.5437C252.613 15.3959 252.593 15.2473 252.544 15.1076C252.465 14.9258 252.335 14.7703 252.17 14.6594C252.24 14.6413 252.305 14.6088 252.362 14.5641C252.697 14.3353 252.668 13.8681 252.649 13.2674C252.601 12.3139 252.553 11.103 253.894 10.4737C254.349 10.2755 254.853 10.2124 255.343 10.2918C255.834 10.3713 256.292 10.5901 256.661 10.9219C256.948 11.2547 257.154 11.6488 257.264 12.0737C257.373 12.4986 257.383 12.9429 257.293 13.3723C257.293 13.9157 257.226 14.3925 257.609 14.5736C257.667 14.6098 257.732 14.6326 257.8 14.6404C257.618 14.7476 257.477 14.9119 257.398 15.1076C257.351 15.303 257.347 15.5059 257.385 15.7032C257.423 15.9004 257.502 16.0874 257.618 16.2517C257.971 16.9526 258.528 17.5308 259.217 17.9108H259.102C258.916 17.9023 258.733 17.9599 258.586 18.0734C258.438 18.187 258.336 18.349 258.298 18.5305C258.3 18.5686 258.3 18.6068 258.298 18.6449C257.903 18.5673 257.496 18.5811 257.107 18.6852C256.719 18.7894 256.36 18.9811 256.058 19.2456C255.435 19.6842 254.995 19.9989 253.76 19.1217C253.398 18.7968 252.934 18.6079 252.448 18.5877C252.201 18.5952 251.955 18.6175 251.711 18.6545C251.69 18.5289 251.651 18.4069 251.596 18.2922C251.514 18.1719 251.404 18.0734 251.276 18.0053C251.147 17.9371 251.004 17.9014 250.858 17.9012H250.724C251.132 17.7117 251.496 17.4427 251.797 17.1103C252.098 16.7778 252.329 16.3886 252.477 15.9657Z" fill="#555555"/>
</svg>
