<svg width="31" height="23" viewBox="0 0 31 23" fill="none" xmlns="http://www.w3.org/2000/svg">
<path d="M18.3887 7.55421C17.3506 6.55606 15.9769 6 14.5491 6C13.1212 6 11.7475 6.55606 10.7094 7.55421L10 8.24289L9.29063 7.55421C8.25514 6.54929 6.87729 5.99234 5.44682 6.00047C4.01902 5.99364 2.64421 6.55056 1.61125 7.55421C1.10276 8.0382 0.697356 8.6234 0.420188 9.27353C0.14302 9.92365 0 10.6248 0 11.3336C0 12.0423 0.14302 12.7435 0.420188 13.3936C0.697356 14.0437 1.10276 14.6289 1.61125 15.1129L9.4391 22.7724C9.51585 22.8408 9.60199 22.8974 9.6948 22.9404C9.89078 23.0199 10.1092 23.0199 10.3052 22.9404C10.398 22.8974 10.4841 22.8408 10.5609 22.7724L18.3887 15.1129C18.8972 14.6289 19.3026 14.0437 19.5798 13.3936C19.857 12.7435 20 12.0423 20 11.3336C20 10.6248 19.857 9.92365 19.5798 9.27353C19.3026 8.6234 18.8972 8.0382 18.3887 7.55421ZM18.3887 11.3168C18.3911 11.8136 18.2943 12.3058 18.1043 12.7634C17.9143 13.221 17.6351 13.6346 17.2834 13.9791L10 21.1179L2.7248 13.9791C2.36775 13.6375 2.08319 13.225 1.88868 12.7671C1.69417 12.3092 1.59382 11.8156 1.59382 11.3168C1.59382 10.8179 1.69417 10.3243 1.88868 9.86641C2.08319 9.40852 2.36775 8.99605 2.7248 8.65442C3.45741 7.94171 4.43359 7.54714 5.44682 7.55421C6.46509 7.5463 7.44671 7.94068 8.18532 8.65442L9.4391 9.88901C9.51585 9.95737 9.60199 10.014 9.6948 10.057C9.89078 10.1365 10.1092 10.1365 10.3052 10.057C10.398 10.014 10.4841 9.95737 10.5609 9.88901L11.8229 8.65442C12.5555 7.94171 13.5317 7.54714 14.5449 7.55421C15.5632 7.5463 16.5448 7.94068 17.2834 8.65442C17.6381 8.99747 17.9204 9.41042 18.1133 9.86813C18.3061 10.3258 18.4055 10.8187 18.4052 11.3168H18.3887Z" fill="#111111"/>
<circle cx="22" cy="9" r="9" fill="#9C6D3A"/>
<path d="M21.9866 13.1C20.6666 13.1 19.6566 12.24 19.6066 11.04H20.6166C20.6866 11.76 21.2366 12.19 21.9866 12.19C22.9166 12.19 23.3766 11.61 23.3766 10.84C23.3766 10.14 22.8766 9.53 21.9766 9.53C21.3766 9.53 20.9266 9.78 20.6466 10.27L19.8266 10.01L20.4266 6.24H24.0366V7.14H21.1566L20.8566 9.09C21.2366 8.79 21.6666 8.65 22.1266 8.65C23.6166 8.65 24.4266 9.69 24.4266 10.84C24.4266 12.05 23.5566 13.1 21.9866 13.1Z" fill="white"/>
</svg>
